<svg xmlns="http://www.w3.org/2000/svg" viewBox="0 0 151.6 31.78"><defs><style>.cls-1{fill:#005bbd;}</style></defs><title>logo</title><g id="Layer_2" data-name="Layer 2"><g id="Layer_1-2" data-name="Layer 1"><path class="cls-1" d="M7.61,22.42A4.52,4.52,0,0,1,4,20.76h0v7.08H0V10.13H3.74v1.46h.08a4.74,4.74,0,0,1,3.81-1.8c3.48,0,5.67,2.93,5.67,6.27S11.21,22.42,7.61,22.42ZM6.67,13a3,3,0,0,0-2.88,3.07,3,3,0,0,0,2.88,3.07,2.85,2.85,0,0,0,2.81-3.09A2.82,2.82,0,0,0,6.67,13Z"/><path class="cls-1" d="M15.37,11.76a7.82,7.82,0,0,1,5.33-2c4,0,5.5,2,5.5,6.31v6H22.6V20.81h-.08a4,4,0,0,1-3.38,1.56c-1.9,0-4.35-.94-4.35-3.74,0-3.46,4.21-4,7.69-4V14.4c0-1.17-.94-1.73-2.16-1.73a4.56,4.56,0,0,0-3,1.23Zm7.23,5.11h-.51c-1.73,0-3.67.22-3.67,1.64,0,.91.91,1.22,1.7,1.22a2.27,2.27,0,0,0,2.48-2.45Z"/><path class="cls-1" d="M55.8,17.19H47.13A2.74,2.74,0,0,0,50,19.44a3.13,3.13,0,0,0,2.64-1.25l2.74,1.73a6.28,6.28,0,0,1-5.43,2.55c-3.6,0-6.58-2.28-6.58-6.32a6.17,6.17,0,0,1,6.46-6.4c3.53,0,6,2.42,6,6.5C55.82,16.56,55.82,16.9,55.8,17.19Zm-3.6-2.45a2.17,2.17,0,0,0-2.36-2.28,2.6,2.6,0,0,0-2.71,2.28Z"/><path class="cls-1" d="M65.55,13.35a3.66,3.66,0,0,0-1-.12,2.69,2.69,0,0,0-2.8,2.71v6.14H57.8V10.13h3.79v1.73h0a3.62,3.62,0,0,1,3.24-2.07,2.84,2.84,0,0,1,.84.1Z"/><path class="cls-1" d="M83.84,22.08h-4l-2.35-7.44h0l-2.3,7.44h-4L67.09,10.13h4.25l2.06,7.56h.07l2.14-7.56h4l2.21,7.56h0l2.08-7.56H88Z"/><path class="cls-1" d="M94.79,22.47a6.32,6.32,0,0,1-6.62-6.41c0-3.92,3-6.31,6.62-6.31s6.65,2.39,6.65,6.31A6.34,6.34,0,0,1,94.79,22.47Zm0-9.46a2.83,2.83,0,0,0-2.81,3,2.85,2.85,0,1,0,5.67,0A2.87,2.87,0,0,0,94.79,13Z"/><path class="cls-1" d="M111.16,13.35a3.63,3.63,0,0,0-1-.12,2.69,2.69,0,0,0-2.81,2.71v6.14h-3.94V10.13h3.79v1.73h0a3.62,3.62,0,0,1,3.24-2.07,2.84,2.84,0,0,1,.84.1Z"/><path class="cls-1" d="M137.14,17.19h-8.66a2.74,2.74,0,0,0,2.85,2.25A3.11,3.11,0,0,0,134,18.19l2.74,1.73a6.27,6.27,0,0,1-5.42,2.55c-3.6,0-6.58-2.28-6.58-6.32a6.17,6.17,0,0,1,6.46-6.4c3.52,0,6,2.42,6,6.5C137.17,16.56,137.17,16.9,137.14,17.19Zm-3.6-2.45a2.17,2.17,0,0,0-2.35-2.28,2.59,2.59,0,0,0-2.71,2.28Z"/><path class="cls-1" d="M148,22.08V20.52h0a4.66,4.66,0,0,1-3.92,1.9c-3.6,0-5.69-3-5.69-6.36s2.16-6.27,5.65-6.27a4.71,4.71,0,0,1,3.64,1.61h0V3.94h3.94V22.08ZM145,13a2.84,2.84,0,0,0-2.83,3A2.86,2.86,0,0,0,145,19.15a2.94,2.94,0,0,0,2.88-3.07A3,3,0,0,0,145,13Z"/><path class="cls-1" d="M32.63,27.84V20.76h0a4.5,4.5,0,0,0,3.62,1.66c3.6,0,5.69-3,5.69-6.36s-2.18-6.27-5.66-6.27a4.74,4.74,0,0,0-3.82,1.8h-.07V10.13H28.69V31.78H113V27.84ZM35.37,13a2.81,2.81,0,0,1,2.8,3,2.84,2.84,0,0,1-2.8,3.09,2.94,2.94,0,0,1-2.88-3.07A3,3,0,0,1,35.37,13Z"/><polygon class="cls-1" points="116.92 0 32.48 0 32.48 3.94 112.96 3.94 112.96 22.08 116.92 22.08 116.92 16.35 117 16.35 120.91 22.08 125.78 22.08 120.98 15.53 125.59 10.13 120.81 10.13 117 14.98 116.92 14.98 116.92 0"/></g></g></svg>